<svg width="76" height="76" viewBox="0 0 76 76" fill="none" xmlns="http://www.w3.org/2000/svg">
<path fill-rule="evenodd" clip-rule="evenodd" d="M33.1798 38.2594V56.5894C33.1798 56.8494 33.3898 57.0694 33.6598 57.0694H40.4698C40.7298 57.0694 40.9498 56.8594 40.9498 56.5894V37.9594H45.8898C46.1398 37.9594 46.3398 37.7694 46.3698 37.5194L46.8398 31.9094C46.8598 31.6294 46.6398 31.3894 46.3598 31.3894H40.9498V27.4094C40.9498 26.4794 41.7098 25.7194 42.6398 25.7194H46.4398C46.6998 25.7194 46.9198 25.5094 46.9198 25.2394V19.6294C46.9198 19.3694 46.7098 19.1494 46.4398 19.1494H40.0098C36.2398 19.1494 33.1798 22.2094 33.1798 25.9794V31.3894H29.7798C29.5198 31.3894 29.2998 31.5994 29.2998 31.8694V37.4794C29.2998 37.7394 29.5098 37.9594 29.7798 37.9594H33.1798V38.2594V38.2594Z" fill="black"/>
<path d="M38.1096 0.639648C17.4496 0.639648 0.639648 17.4496 0.639648 38.1096C0.639648 58.7696 17.4496 75.5797 38.1096 75.5797C58.7696 75.5797 75.5797 58.7696 75.5797 38.1096C75.5797 17.4496 58.7696 0.639648 38.1096 0.639648ZM70.7696 38.1096C70.7696 56.1196 56.1196 70.7696 38.1096 70.7696C20.0996 70.7696 5.43965 56.1196 5.43965 38.1096C5.43965 20.0996 20.0996 5.43965 38.1096 5.43965C56.1196 5.43965 70.7696 20.0896 70.7696 38.0996V38.1096Z" fill="black"/>
</svg>
