<svg width="108" height="108" viewBox="0 0 108 108" fill="none" xmlns="http://www.w3.org/2000/svg">
<path d="M103.497 53.4267C103.468 50.9416 101.431 48.9499 98.9459 48.9782C98.8714 48.979 98.7974 48.9817 98.7238 48.9861C98.4397 46.4233 97.9404 43.9255 97.2444 41.511C97.3154 41.4865 97.3863 41.4602 97.4568 41.4319C99.7635 40.5066 100.883 37.8866 99.958 35.58C99.816 35.2259 99.6699 34.8738 99.52 34.5238C98.5414 32.2393 95.8961 31.1807 93.6116 32.1593C93.542 32.1891 93.4734 32.2206 93.406 32.2535C92.1705 30.0194 90.7506 27.9016 89.1667 25.9206C89.2222 25.8714 89.2768 25.8206 89.3305 25.7681C91.1079 24.0311 91.1406 21.182 89.4035 19.4046C89.1373 19.1321 88.8679 18.8627 88.5954 18.5965C86.818 16.8594 83.9689 16.8921 82.2319 18.6695C82.1794 18.7232 82.1286 18.7778 82.0794 18.8333C80.0984 17.2494 77.9806 15.8295 75.7465 14.594C75.7794 14.5266 75.8108 14.458 75.8407 14.3884C76.8193 12.1039 75.7607 9.45858 73.4762 8.47998C73.1262 8.33005 72.7741 8.18404 72.42 8.042C70.1134 7.11673 67.4934 8.23654 66.5681 10.5432C66.5398 10.6137 66.5134 10.6846 66.4889 10.7556C64.0745 10.0596 61.5766 9.56028 59.0139 9.27618C59.0183 9.20263 59.021 9.1286 59.0218 9.05412C59.0501 6.569 57.0584 4.53151 54.5733 4.50326C54.3824 4.50109 54.1913 4.5 54 4.5C53.8087 4.5 53.6176 4.50109 53.4267 4.50326C50.9416 4.53151 48.9499 6.569 48.9782 9.05412C48.979 9.1286 48.9817 9.20263 48.9861 9.27618C46.4233 9.56029 43.9255 10.0596 41.511 10.7556C41.4865 10.6846 41.4602 10.6137 41.4319 10.5432C40.5066 8.23654 37.8866 7.11673 35.58 8.042C35.2259 8.18404 34.8738 8.33006 34.5238 8.47998C32.2393 9.45858 31.1807 12.1039 32.1593 14.3884C32.1891 14.458 32.2206 14.5266 32.2535 14.594C30.0194 15.8295 27.9016 17.2494 25.9206 18.8333C25.8714 18.7778 25.8206 18.7232 25.7681 18.6695C24.0311 16.8921 21.182 16.8594 19.4046 18.5965C19.1321 18.8627 18.8627 19.1321 18.5965 19.4046C16.8594 21.182 16.8921 24.0311 18.6695 25.7681C18.7232 25.8206 18.7778 25.8714 18.8333 25.9206C17.2494 27.9016 15.8295 30.0194 14.594 32.2535C14.5266 32.2206 14.458 32.1892 14.3884 32.1593C12.1039 31.1807 9.45858 32.2393 8.47998 34.5238C8.33005 34.8738 8.18404 35.2259 8.042 35.58C7.11673 37.8866 8.23654 40.5066 10.5432 41.4319C10.6137 41.4602 10.6846 41.4866 10.7556 41.5111C10.0596 43.9255 9.56028 46.4234 9.27618 48.9861C9.20263 48.9817 9.1286 48.979 9.05412 48.9782C6.569 48.9499 4.53151 50.9416 4.50326 53.4267C4.50109 53.6176 4.5 53.8087 4.5 54C4.5 54.1913 4.50109 54.3824 4.50326 54.5733C4.53151 57.0584 6.569 59.0501 9.05412 59.0218C9.1286 59.021 9.20263 59.0183 9.27618 59.0139C9.56029 61.5767 10.0596 64.0745 10.7556 66.489C10.6846 66.5135 10.6137 66.5398 10.5432 66.5681C8.23654 67.4934 7.11673 70.1134 8.042 72.42C8.18404 72.7741 8.33006 73.1262 8.47998 73.4762C9.45858 75.7607 12.1039 76.8193 14.3884 75.8407C14.458 75.8108 14.5266 75.7794 14.594 75.7465C15.8295 77.9806 17.2494 80.0984 18.8333 82.0794C18.7778 82.1286 18.7232 82.1795 18.6695 82.2319C16.8921 83.9689 16.8594 86.818 18.5965 88.5954C18.8627 88.8679 19.1321 89.1373 19.4046 89.4035C21.182 91.1406 24.0311 91.1079 25.7681 89.3305C25.8206 89.2768 25.8714 89.2222 25.9206 89.1667C27.9016 90.7506 30.0194 92.1705 32.2535 93.406C32.2206 93.4734 32.1892 93.542 32.1593 93.6116C31.1807 95.8961 32.2393 98.5414 34.5238 99.52C34.8738 99.6699 35.2259 99.816 35.58 99.958C37.8866 100.883 40.5066 99.7635 41.4319 97.4568C41.4602 97.3863 41.4866 97.3154 41.5111 97.2444C43.9255 97.9404 46.4234 98.4397 48.9861 98.7238C48.9817 98.7974 48.979 98.8714 48.9782 98.9459C48.9499 101.431 50.9416 103.468 53.4267 103.497C53.6176 103.499 53.8087 103.5 54 103.5C54.1913 103.5 54.3824 103.499 54.5733 103.497C57.0584 103.468 59.0501 101.431 59.0218 98.9459C59.021 98.8714 59.0183 98.7974 59.0139 98.7238C61.5767 98.4397 64.0745 97.9404 66.489 97.2444C66.5135 97.3154 66.5398 97.3863 66.5681 97.4568C67.4934 99.7635 70.1134 100.883 72.42 99.958C72.7741 99.816 73.1262 99.6699 73.4762 99.52C75.7607 98.5414 76.8193 95.8961 75.8407 93.6116C75.8108 93.542 75.7794 93.4734 75.7465 93.406C77.9806 92.1705 80.0984 90.7506 82.0794 89.1667C82.1286 89.2222 82.1795 89.2768 82.2319 89.3305C83.9689 91.1079 86.818 91.1406 88.5954 89.4035C88.8679 89.1373 89.1373 88.8679 89.4035 88.5954C91.1406 86.818 91.1079 83.9689 89.3305 82.2319C89.2768 82.1794 89.2222 82.1286 89.1667 82.0794C90.7506 80.0984 92.1705 77.9806 93.406 75.7465C93.4734 75.7794 93.542 75.8108 93.6116 75.8407C95.8961 76.8193 98.5414 75.7607 99.52 73.4762C99.6699 73.1262 99.816 72.7741 99.958 72.42C100.883 70.1134 99.7635 67.4934 97.4568 66.5681C97.3863 66.5398 97.3154 66.5134 97.2444 66.4889C97.9404 64.0745 98.4397 61.5766 98.7238 59.0139C98.7974 59.0183 98.8714 59.021 98.9459 59.0218C101.431 59.0501 103.468 57.0584 103.497 54.5733C103.499 54.3824 103.5 54.1913 103.5 54C103.5 53.8087 103.499 53.6176 103.497 53.4267Z" fill="#9BC8EB" stroke="#9BC8EB" stroke-width="9" stroke-linecap="round" stroke-linejoin="round" stroke-dasharray="1 16"/>
</svg>
