<?xml version="1.0" encoding="UTF-8"?><svg id="a" xmlns="http://www.w3.org/2000/svg" viewBox="0 0 1000 1000"><g transform="translate(0.000000,511.000000) scale(0.100000,-0.100000)"><path d="M986.32,544.57c-8.33,34.78-31.8,68.72-60.61,87.71-14.93,10.03-43.11,20.06-56.55,20.06h-10.24l8.54,11.31c16.85,22.19,24.32,46.1,24.11,77.04,0,42.47-18.36,81.74-52.5,113.75-53.36,49.94-128.05,56.77-182.68,16.65l-10.03-7.47-2.56,15.58c-3.84,23.9-16.22,47.37-35,65.94-8.53,8.53-20.91,18.78-27.74,22.83-28.81,16.86-67.22,24.76-103.93,21.13-65.94-6.4-115.45-49.73-127.62-111.62l-3.63-18.35-5.12,5.33c-7.26,7.68-31.59,19.85-47.38,23.69-17.28,4.06-48.23,4.06-65.3,0-55.49-13.02-106.07-62.53-120.15-117.59-10.46-40.54-1.5-85.57,22.62-115.45l7.26-8.75-11.31-1.49c-70-9.6-121.64-80.88-116.09-160.05,2.77-40.34,16.64-71.92,43.1-98.17,20.49-20.7,40.76-31.59,67.65-36.71,9.81-1.92,17.92-3.62,18.35-4.05,.42-.22-2.78-5.13-7.26-10.89-24.76-32.01-30.3-78.32-14.94-122.71,17.29-49.51,65.09-93.48,114.39-105,17.93-4.26,49.08-4.26,65.09-.21,17.5,4.69,33.93,12.37,47.38,22.62l11.31,8.54v-6.83c0-10.45,6.19-31.8,13.02-44.6,20.92-39.26,60.4-66.58,108.2-74.69,36.71-6.19,80.46,1.71,110.97,19.63,34.36,20.27,64.45,66.36,64.45,99.23,0,5.13,.64,9.18,1.28,9.18s4.91-2.98,9.39-6.4c17.93-14.3,51.43-25.4,76.19-25.61,27.32,0,61.03,10.67,85.79,27.53,55.7,37.99,83.45,102.87,68.72,160.7-4.91,18.78-14.51,38.84-23.69,49.3-3.41,4.05-6.4,7.9-6.4,8.75,0,.64,3.2,1.28,7.04,1.28,3.63,0,12.17,1.49,18.57,3.2,47.8,12.8,86.64,56.34,98.38,110.97,3.84,17.92,3.41,56.55-1.07,74.69Z"/></g></svg>