<svg width="980" height="980" viewBox="0 0 980 980" fill="none" xmlns="http://www.w3.org/2000/svg">
<path d="M976.32 534.57C967.99 569.35 944.52 603.29 915.71 622.28C900.78 632.31 872.6 642.34 859.16 642.34H848.92L857.46 653.65C874.31 675.84 881.78 699.75 881.57 730.69C881.57 773.16 863.21 812.43 829.07 844.44C775.71 894.38 701.02 901.21 646.39 861.09L636.36 853.62L633.8 869.2C629.96 893.1 617.58 916.57 598.8 935.14C590.27 943.67 577.89 953.92 571.06 957.97C542.25 974.83 503.84 982.73 467.13 979.1C401.19 972.7 351.68 929.37 339.51 867.48L335.88 849.13L330.76 854.46C323.5 862.14 299.17 874.31 283.38 878.15C266.1 882.21 235.15 882.21 218.08 878.15C162.59 865.13 112.01 815.62 97.93 760.56C87.47 720.02 96.43 674.99 120.55 645.11L127.81 636.36L116.5 634.87C46.5 625.27 -5.14004 553.99 0.409964 474.82C3.17996 434.48 17.05 402.9 43.51 376.65C64 355.95 84.27 345.06 111.16 339.94C120.97 338.02 129.08 336.32 129.51 335.89C129.93 335.67 126.73 330.76 122.25 325C97.49 292.99 91.95 246.68 107.31 202.29C124.6 152.78 172.4 108.81 221.7 97.2901C239.63 93.0301 270.78 93.0301 286.79 97.0801C304.29 101.77 320.72 109.45 334.17 119.7L345.48 128.24V121.41C345.48 110.96 351.67 89.6101 358.5 76.8101C379.42 37.5501 418.9 10.2302 466.7 2.12015C503.41 -4.06985 547.16 3.83013 577.67 21.7501C612.03 42.0201 642.12 88.1101 642.12 120.98C642.12 126.11 642.76 130.16 643.4 130.16C644.04 130.16 648.31 127.18 652.79 123.76C670.72 109.46 704.22 98.3601 728.98 98.1501C756.3 98.1501 790.01 108.82 814.77 125.68C870.47 163.67 898.22 228.55 883.49 286.38C878.58 305.16 868.98 325.22 859.8 335.68C856.39 339.73 853.4 343.58 853.4 344.43C853.4 345.07 856.6 345.71 860.44 345.71C864.07 345.71 872.61 347.2 879.01 348.91C926.81 361.71 965.65 405.25 977.39 459.88C981.23 477.8 980.8 516.43 976.32 534.57Z" fill="#9BC8EB"/>
</svg>
