<svg width="76" height="76" viewBox="0 0 76 76" fill="none" xmlns="http://www.w3.org/2000/svg">
<path d="M50.5995 27.7698C50.5995 29.0098 49.5995 30.0098 48.3595 30.0098C47.1195 30.0098 46.1195 28.9998 46.1195 27.7698C46.1195 26.5398 47.1295 25.5298 48.3595 25.5298C49.5895 25.5298 50.5995 26.5398 50.5995 27.7698ZM47.8095 37.8298C47.8095 43.0298 43.5795 47.2598 38.3795 47.2598C33.1795 47.2598 28.9495 43.0298 28.9495 37.8298C28.9495 32.6298 33.1795 28.3998 38.3795 28.3998C43.5795 28.3998 47.8095 32.6298 47.8095 37.8298ZM44.4195 37.8298C44.4195 34.4998 41.7095 31.7898 38.3795 31.7898C35.0495 31.7898 32.3395 34.4998 32.3395 37.8298C32.3395 41.1598 35.0495 43.8698 38.3795 43.8698C41.7095 43.8698 44.4195 41.1598 44.4195 37.8298ZM57.4595 30.2598C57.4595 23.9098 52.3095 18.7598 45.9595 18.7598H30.2695C23.9195 18.7598 18.7695 23.9098 18.7695 30.2598V45.9498C18.7695 52.2998 23.9195 57.4498 30.2695 57.4498H45.9595C52.3095 57.4498 57.4595 52.2998 57.4595 45.9498V30.2598ZM53.6795 45.7798C53.6795 50.1398 50.1395 53.6798 45.7795 53.6798H30.4295C26.0695 53.6798 22.5295 50.1398 22.5295 45.7798V30.4298C22.5295 26.0698 26.0695 22.5298 30.4295 22.5298H45.7795C50.1395 22.5298 53.6795 26.0698 53.6795 30.4298V45.7798Z" fill="black"/>
<path d="M38.1096 0.639648C17.4496 0.639648 0.639648 17.4496 0.639648 38.1096C0.639648 58.7696 17.4496 75.5797 38.1096 75.5797C58.7696 75.5797 75.5797 58.7696 75.5797 38.1096C75.5797 17.4496 58.7696 0.639648 38.1096 0.639648ZM38.1096 70.7696C20.0996 70.7696 5.44965 56.1196 5.44965 38.1096C5.44965 20.0996 20.0996 5.43965 38.1096 5.43965C56.1196 5.43965 70.7796 20.0896 70.7796 38.0996C70.7796 56.1096 56.1297 70.7597 38.1096 70.7597V70.7696Z" fill="black"/>
</svg>
