<svg width="76" height="76" viewBox="0 0 76 76" fill="none" xmlns="http://www.w3.org/2000/svg">
<path d="M21.4098 28.0504H28.5798V51.0704H21.4098V28.0504V28.0504ZM24.9898 16.6104C27.2798 16.6104 29.1398 18.4704 29.1398 20.7604C29.1398 23.0504 27.2798 24.9104 24.9898 24.9104C22.6998 24.9104 20.8398 23.0504 20.8398 20.7604C20.8398 18.4704 22.6998 16.6104 24.9898 16.6104ZM33.0598 51.0804H40.2098V39.6903C40.2098 36.6903 40.7798 33.7803 44.4998 33.7803C48.2198 33.7803 48.2198 37.2104 48.2198 39.8904V51.0804H55.3698V38.4504C55.3698 32.2504 54.0298 27.4804 46.7898 27.4804C43.2998 27.4804 40.9698 29.3904 40.0098 31.2004H39.9198V28.0504H33.0498V51.0704L33.0598 51.0804Z" fill="black"/>
<path d="M38.1096 0.200195C17.4496 0.200195 0.639648 17.0102 0.639648 37.6702C0.639648 58.3302 17.4496 75.1402 38.1096 75.1402C58.7696 75.1402 75.5797 58.3302 75.5797 37.6702C75.5797 17.0102 58.7696 0.200195 38.1096 0.200195ZM38.1096 70.3302C20.0996 70.3302 5.44965 55.6802 5.44965 37.6602C5.44965 19.6402 20.0996 5.0002 38.1096 5.0002C56.1196 5.0002 70.7696 19.6502 70.7696 37.6602C70.7696 55.6702 56.1196 70.3302 38.1096 70.3302Z" fill="black"/>
</svg>
