<svg width="91" height="69" viewBox="0 0 91 69" fill="none" xmlns="http://www.w3.org/2000/svg">
<path d="M0.488861 17.2823L0.601753 16.5243L0.719147 16.5514C1.5215 12.8021 3.36983 9.3564 6.05028 6.61303C8.73073 3.86966 12.1337 1.94073 15.8656 1.04942C19.5974 0.158115 23.5055 0.340867 27.1377 1.57653C30.77 2.8122 33.9778 5.05027 36.3902 8.03179C38.8025 11.0133 40.3207 14.6164 40.7691 18.4242C41.2176 22.232 40.5779 26.0889 38.9241 29.5486C37.2703 33.0082 34.67 35.9293 31.4241 37.9737C28.1782 40.0182 24.4193 41.1025 20.5823 41.1012C19.5754 41.1012 18.6091 40.9478 17.6473 40.808C17.9589 41.8548 18.2795 42.9196 18.7942 43.8761C19.309 45.2658 20.1127 46.4705 20.9119 47.6843C21.5802 48.9973 22.7587 49.8861 23.6257 51.0096C24.5333 52.1015 25.7705 52.828 26.7503 53.7349C27.7121 54.6824 28.9719 55.1562 29.9743 55.8239C31.0219 56.424 31.934 57.0873 32.9093 57.4031L35.3431 58.4048L37.4834 59.2937L35.298 68.0425L32.6023 67.3927C31.7398 67.1761 30.6878 66.9235 29.4912 66.6212C28.2675 66.3956 26.9626 65.7774 25.5086 65.2134C24.0772 64.5682 22.4111 64.1396 20.8668 63.1063C19.3135 62.1227 17.5209 61.3015 15.9405 59.984C14.4098 58.6259 12.563 57.4483 11.1994 55.7247C9.70928 54.1094 8.23727 52.4129 7.09488 50.4817C5.77187 48.6408 4.87331 46.6194 3.92508 44.6206C3.06715 42.6218 2.3763 40.5779 1.81187 38.5926C0.74173 34.613 0.263092 30.8319 0.0779648 27.5968C-0.0755615 24.3572 0.0147476 21.6635 0.204391 19.7143C0.267853 18.9003 0.36274 18.089 0.488861 17.2823ZM50.1581 17.2823L50.271 16.5243L50.3884 16.5514C51.1907 12.8021 53.0391 9.3564 55.7195 6.61303C58.4 3.86966 61.803 1.94073 65.5348 1.04942C69.2666 0.158115 73.1747 0.340867 76.807 1.57653C80.4392 2.8122 83.647 5.05027 86.0594 8.03179C88.4717 11.0133 89.9899 14.6164 90.4384 18.4242C90.8868 22.232 90.2471 26.0889 88.5933 29.5486C86.9396 33.0082 84.3393 35.9293 81.0933 37.9737C77.8474 40.0182 74.0885 41.1025 70.2516 41.1012C69.2446 41.1012 68.2783 40.9478 67.3166 40.808C67.6281 41.8548 67.9487 42.9196 68.4635 43.8761C68.9782 45.2658 69.782 46.4705 70.5812 47.6843C71.2495 48.9973 72.428 49.8861 73.2949 51.0096C74.2025 52.1015 75.4397 52.828 76.4196 53.7349C77.3814 54.6824 78.6411 55.1562 79.6436 55.8239C80.6911 56.424 81.6032 57.0873 82.5786 57.4031L85.0124 58.4048C86.3715 58.9598 87.1481 59.2846 87.1481 59.2846L84.9627 68.0334L82.267 67.3837C81.4046 67.1671 80.3525 66.9144 79.1559 66.6121C77.9322 66.3865 76.6273 65.7684 75.1733 65.2044C73.742 64.5592 72.0758 64.1305 70.5315 63.0973C68.9782 62.1137 67.1856 61.2925 65.6052 59.975C64.0745 58.6169 62.2277 57.4392 60.8641 55.7156C59.374 54.1003 57.902 52.4038 56.7596 50.4727C55.4366 48.6318 54.538 46.6104 53.5898 44.6116C52.7319 42.6128 52.041 40.5688 51.4766 38.5835C50.4064 34.604 49.9278 30.8229 49.7427 27.5878C49.5892 24.3482 49.6795 21.6545 49.8691 19.7053C49.9365 18.8945 50.0329 18.0863 50.1581 17.2823Z" fill="#F7E87C"/>
</svg>
