<svg width="19" height="19" viewBox="0 0 19 19" fill="none" xmlns="http://www.w3.org/2000/svg">
<path d="M12.6342 3.28904C12.6341 2.62741 12.8667 1.98681 13.2913 1.47933C13.7158 0.97185 14.3054 0.6298 14.9567 0.513024C15.608 0.396249 16.2797 0.512185 16.8542 0.840549C17.4286 1.16891 17.8693 1.6888 18.0992 2.30924C18.329 2.92968 18.3333 3.61117 18.1114 4.23448C17.8895 4.85779 17.4554 5.38323 16.8851 5.71887C16.3149 6.0545 15.6448 6.17896 14.992 6.07047C14.3392 5.96197 13.7454 5.62744 13.3144 5.12539L5.73575 8.64468C5.90998 9.19675 5.90998 9.78908 5.73575 10.3412L13.3144 13.8604C13.77 13.3307 14.4061 12.9889 15.0993 12.9013C15.7926 12.8137 16.4937 12.9865 17.0667 13.3863C17.6398 13.7862 18.044 14.3844 18.2011 15.0653C18.3581 15.7461 18.2567 16.4609 17.9167 17.0713C17.5766 17.6817 17.022 18.1441 16.3604 18.3689C15.6988 18.5937 14.9773 18.565 14.3357 18.2882C13.6941 18.0114 13.1781 17.5064 12.8877 16.8709C12.5973 16.2354 12.5532 15.5147 12.7639 14.8485L5.18523 11.3293C4.81006 11.7664 4.30998 12.0782 3.75228 12.2227C3.19457 12.3672 2.60598 12.3374 2.0657 12.1374C1.52541 11.9374 1.05935 11.5768 0.7302 11.104C0.401051 10.6312 0.224609 10.069 0.224609 9.49291C0.224609 8.91686 0.401051 8.35462 0.7302 7.88184C1.05935 7.40906 1.52541 7.0484 2.0657 6.8484C2.60598 6.64839 3.19457 6.61863 3.75228 6.76311C4.30998 6.9076 4.81006 7.2194 5.18523 7.65657L12.7639 4.13728C12.6776 3.86281 12.6339 3.57675 12.6342 3.28904Z" fill="black"/>
</svg>
