<svg width="160" height="80" viewBox="0 0 160 80" fill="none" xmlns="http://www.w3.org/2000/svg">
<path d="M157.715 43.1488C155.869 52.2901 145.204 59.5488 135.23 55.3433C131.235 53.18 132.92 46.8845 131.976 42.7946C132.807 37.4258 129.665 29.3946 133.591 26.2148C145.433 19.3726 159.017 30.3671 157.715 43.1506V43.1488ZM152.078 45.4478C155.011 36.6148 147.061 26.9323 137.572 29.5579C134.919 31.4093 136.67 37.2038 135.782 40.5194C135.485 44.668 134.557 49.8809 134.198 53.4112C141.394 55.5084 149.089 51.0534 152.076 45.4497L152.078 45.4478Z" fill="black" fill-opacity="0.76"/>
<path d="M18.2575 47.0436C4.18713 38.8913 15.3705 18.172 30.7482 23.6216C32.426 24.3702 33.4631 25.128 34.8649 26.2491C35.4168 26.8785 38.226 30.2473 35.6038 29.717C34.2279 28.6638 32.7964 28.2821 31.389 27.5885C23.5797 25.0418 14.4705 32.917 19.8908 39.8142C22.3019 41.7225 26.0834 41.7023 28.8297 43.139C33.1612 44.6362 35.8501 48.1904 37.6057 52.4087C40.5297 61.4454 36.0927 70.6491 28.1871 74.0087C20.6408 77.4087 9.06491 76.8583 5.57787 69.7078C2.41305 66.8252 6.94268 53.0014 7.32602 63.8124C9.37046 74.2583 26.6945 70.8656 30.1316 63.3207C32.3186 59.095 31.4353 53.328 27.6353 50.6583C25.089 48.75 21.4538 48.4693 18.2575 47.0436Z" fill="black" fill-opacity="0.76"/>
<path d="M90.5758 54.9651C75.6924 49.3192 81.6721 18.9358 99.5443 26.1431C106.267 29.3596 109.167 38.7137 106.481 46.2697C104.952 52.4202 97.3961 58.4165 90.5758 54.9651ZM90.9406 51.3064C104.654 57.3376 108.337 32.6073 97.2239 29.1009C93.3943 27.0477 88.3387 30.5614 87.2776 33.9743C83.8073 39.455 86.1684 48.4513 90.9406 51.3064Z" fill="black" fill-opacity="0.76"/>
<path d="M127.545 56.8292C125.902 54.7264 125.506 51.8255 124.093 49.6383C123.378 47.3851 121.919 45.3227 120.963 43.2493C119.247 40.8622 117.615 37.9521 115.498 35.5888C113.637 32.4787 114.634 38.0237 114.404 39.5227C114.297 41.5319 115.085 62.7044 112.419 55.0475C111.135 47.0971 110.593 38.8273 110.43 30.486C110.05 26.0108 108.843 21.976 113.717 27.4787C127.01 39.5906 124.421 51.3411 125.245 25.2163C129.748 33.0493 128.048 46.7209 127.548 56.8273L127.545 56.8292Z" fill="black" fill-opacity="0.76"/>
<path d="M64.0261 51.7267C59.3243 47.6478 56.7447 38.9157 60.5928 32.7322C64.1002 27.0735 72.6206 22.8698 79.9539 25.857C85.3706 29.1799 78.9428 27.5836 76.3947 27.8496C75.2447 28.356 73.3373 28.268 72.378 29.0863C68.3021 30.4258 65.2632 33.4221 63.9039 37.3487C62.8187 44.3304 67.0836 50.3634 73.1058 51.9377C74.6724 53.1799 83.878 50.501 81.1206 52.7615C76.7799 57.5542 67.8391 55.6038 64.0261 51.7285V51.7267Z" fill="black" fill-opacity="0.76"/>
<path d="M54.8372 27.7649C51.7261 29.7393 47.7669 30.5576 43.8891 29.7723C42.1743 28.7649 43.7465 30.9961 43.6558 31.7319C43.9909 32.6016 43.8595 33.5613 44.228 34.4383C43.852 37.7044 45.5743 37.4163 48.3483 37.3429C50.315 38.0071 52.4983 38.1374 53.2669 40.0879C51.9613 42.4677 47.6632 41.6035 45.6058 41.0255C43.4613 39.7594 43.6761 47.7209 44.6354 48.7282C46.202 51.8585 51.078 52.0493 54.528 51.3833C69.6502 49.7613 50.3354 57.5668 45.5724 54.6126C39.8539 52.7943 38.7539 46.2934 40.5928 40.7943C41.6891 36.4824 40.0983 30.5282 42.5724 27.1411C44.1613 26.1227 57.9539 23.5906 54.8354 27.7649H54.8372Z" fill="black" fill-opacity="0.76"/>
<path d="M33.765 17.36C33.1224 14.8976 31.4057 12.6903 30.4113 10.5545C26.2224 3.69027 28.8224 15.16 28.1094 18.4004C25.5779 20.0224 26.8594 6.3288 25.8964 3.90678C25.6261 1.35082 27.4631 4.35082 28.5853 5.18568C36.0187 13.7031 32.0927 12.1178 33.7964 3.43889C35.2668 5.15449 35.7927 22.2719 33.765 17.36Z" fill="black" fill-opacity="0.76"/>
<path d="M83.3798 60.5084C88.0501 54.49 94.1983 61.6295 88.3168 65.7689C88.3983 66.8735 89.7538 67.246 89.9594 68.2974C90.6335 68.9231 91.6668 73.2423 90.3816 72.6276C89.0983 70.2937 88.3168 68.1047 85.6612 67.1102C83.7112 66.5451 83.6038 70.2919 82.652 71.6001C79.502 74.7212 83.3242 61.7102 83.3816 60.5065L83.3798 60.5084ZM84.352 60.5836C84.3575 61.7671 85.0742 62.8368 84.9816 64.1304C84.8909 65.1231 85.6705 64.2533 86.2816 64.3799C90.039 62.3561 88.9094 58.2735 84.352 60.5836Z" fill="black" fill-opacity="0.76"/>
<path d="M24.1167 14.6882C21.563 20.0919 17.0297 20.5139 14.3686 14.7487C12.7093 11.0735 13.2963 6.47902 14.2815 2.72856C16.2926 -1.04575 12.8075 12.9286 18.2815 16.6974C24.0463 16.6588 23.6649 7.31755 23.8334 2.36159C26.1908 4.57627 25.026 11.7359 24.1149 14.6882H24.1167Z" fill="black" fill-opacity="0.76"/>
<path d="M50.5186 72.517C40.7705 77.4455 38.5556 58.3354 48.6075 59.2234C54.1297 60.4766 55.3649 69.3207 50.5186 72.517ZM51.5668 68.6381C53.5075 63.4913 47.7982 57.5959 44.3575 63.0693C41.0742 69.0895 48.4742 75.5959 51.5668 68.6381Z" fill="black" fill-opacity="0.76"/>
<path d="M67.2647 61.5482C71.4869 55.7023 77.1536 63.205 71.785 66.739C72.6665 68.5738 74.598 70.2619 74.398 73.0674C73.7999 75.0197 72.298 69.2289 71.1202 69.3115C68.7462 66.4601 67.7388 68.5573 67.0776 71.2582C64.5054 75.6858 65.2536 69.4638 66.0258 67.6527C66.6517 65.6913 66.5443 63.383 67.2647 61.5482ZM71.0462 61.2509C70.3425 61.0087 67.4554 61.1794 68.0425 62.2271C68.7536 63.1463 68.2739 64.8803 68.7999 65.4215C70.7758 65.583 73.1517 62.6234 71.0462 61.2509Z" fill="black" fill-opacity="0.76"/>
<path d="M61.8519 58.5068C65.0316 60.4555 64.926 66.1307 63.839 69.4812C63.0019 72.6408 58.089 74.327 55.6167 71.5949C53.6038 68.2188 54.3167 63.2224 55.7056 59.5784C57.3001 61.7234 55.2204 67.1527 57.1575 69.6481C62.7686 74.3729 63.2538 62.2683 61.8519 58.5068Z" fill="black" fill-opacity="0.76"/>
<path d="M94.9391 68.6444C96.0206 70.6187 98.9576 70.3233 101.341 70.3362C103.226 71.1215 99.0854 71.7472 98.3391 71.9178C95.7317 72.0793 93.515 70.8518 92.9317 68.6132C92.8891 66.3619 93.7521 64.2793 94.2187 62.2151C93.5632 58.16 97.6798 57.9674 100.55 58.8077C101.858 59.8701 98.9206 60.1472 98.3039 60.4811C97.5799 60.7435 95.1743 59.6261 95.4002 60.5362C94.8947 65.0187 97.9724 62.5197 99.2187 65.2353C96.4687 67.3068 94.8002 62.2187 94.9391 68.6463V68.6444Z" fill="black" fill-opacity="0.76"/>
<path d="M76.9813 74.2032C74.5813 73.6216 77.1702 66.7849 77.4202 64.7922C81.8294 55.339 78.7794 72.4491 76.9813 74.2032Z" fill="black" fill-opacity="0.76"/>
<path d="M108.524 56.9395C110.041 57.0275 109.774 64.2147 109.206 65.378C107.607 67.2862 107.465 57.7321 108.524 56.9395Z" fill="black" fill-opacity="0.76"/>
<path d="M110.063 69.7381C111.68 71.006 109.569 73.1968 108.237 71.9491C106.882 70.7784 108.58 68.65 110.063 69.7381Z" fill="black" fill-opacity="0.76"/>
<path d="M80.6185 58.0095C81.9241 58.8811 80.1334 61.3765 78.8019 60.1636C77.0463 58.8957 79.2741 56.5893 80.6185 58.0095Z" fill="black" fill-opacity="0.76"/>
</svg>
