<svg width="76" height="76" viewBox="0 0 76 76" fill="none" xmlns="http://www.w3.org/2000/svg">
<path d="M19.3701 47.5105V46.9205C19.6101 46.6405 19.8601 46.4105 20.2501 46.3305C23.3201 45.7205 25.3801 43.7605 26.9301 41.1905C28.2301 39.0305 28.0301 38.5305 25.6201 37.6805C25.4801 37.6305 25.3401 37.5905 25.2101 37.5405C24.6901 37.3305 24.1801 37.1005 23.7501 36.7305C22.6701 35.7905 23.3101 34.4505 24.5801 34.1405C25.5101 33.9205 26.3201 34.5105 27.2201 34.6305C27.8201 34.7005 28.0601 34.5005 27.9901 33.8605C27.8001 32.2105 27.8001 30.5505 27.8801 28.8905C28.0301 25.7305 29.5801 23.3205 32.2201 21.7605C36.0701 19.4805 40.0801 19.4505 43.9601 21.7205C46.3801 23.1405 47.9401 25.2805 48.2801 28.1605C48.5001 30.0305 48.4101 31.9105 48.2701 33.7805C48.2101 34.5905 48.3701 34.7405 49.1801 34.5505C50.1801 34.3205 51.0201 33.8005 52.0601 34.2605C52.6201 34.5005 53.1001 35.0305 53.0901 35.6405C53.0801 36.0605 52.8401 36.4405 52.5201 36.7105C52.0401 37.1305 51.4101 37.3605 50.8301 37.6005C50.3801 37.7805 49.9101 37.9205 49.4701 38.1305C48.5601 38.5605 48.3001 39.1205 48.7301 40.0205C50.2001 43.1305 52.3601 45.4905 55.8601 46.3105C56.2901 46.4105 56.6301 46.5805 56.8901 46.9305V47.5205C56.5601 48.2005 55.9701 48.5805 55.2901 48.8305C54.6101 49.0905 53.9201 49.3805 53.1901 49.4305C52.1801 49.4905 51.6401 49.9405 51.4901 50.9905C51.3401 51.9905 51.0401 52.1405 50.0201 52.0505C49.7801 52.0305 49.5401 51.9905 49.3001 51.9405C47.3001 51.5805 45.4101 51.7905 43.7701 53.1205C43.4501 53.3805 43.0901 53.6005 42.7401 53.8205C39.9301 55.6405 37.0601 55.8505 34.1201 54.1405C33.3201 53.6705 32.5601 53.1405 31.7901 52.6305C31.1501 52.2105 30.4601 51.9805 29.6901 51.8605C28.4701 51.6805 27.3101 51.9505 26.1301 52.0805C25.5201 52.1505 24.9301 51.9705 24.9001 51.3505C24.8201 49.8305 23.8901 49.4605 22.6101 49.3205C22.0201 49.2505 21.4301 49.0105 20.8701 48.7805C20.2601 48.5205 19.7001 48.1605 19.4101 47.5205L19.3701 47.5105Z" fill="black"/>
<path d="M38.1096 0.200195C17.4496 0.200195 0.639648 17.0102 0.639648 37.6702C0.639648 58.3302 17.4496 75.1402 38.1096 75.1402C58.7696 75.1402 75.5797 58.3302 75.5797 37.6702C75.5797 17.0102 58.7696 0.200195 38.1096 0.200195ZM38.1096 70.3302C20.0996 70.3302 5.44965 55.6802 5.44965 37.6702C5.44965 19.6602 20.0996 5.0002 38.1096 5.0002C56.1196 5.0002 70.7696 19.6502 70.7696 37.6602C70.7696 55.6702 56.1196 70.3202 38.1096 70.3202V70.3302Z" fill="black"/>
</svg>
