<svg width="57" height="57" viewBox="0 0 57 57" fill="none" xmlns="http://www.w3.org/2000/svg">
<path d="M28.5 0C36.0587 0 43.3078 3.00267 48.6525 8.34746C53.9973 13.6922 57 20.9413 57 28.5C57 36.0587 53.9973 43.3078 48.6525 48.6525C43.3078 53.9973 36.0587 57 28.5 57C20.9413 57 13.6922 53.9973 8.34746 48.6525C3.00267 43.3078 0 36.0587 0 28.5C0 20.9413 3.00267 13.6922 8.34746 8.34746C13.6922 3.00267 20.9413 0 28.5 0ZM24.9497 34.1226L18.6186 27.7875C18.3917 27.5605 18.1222 27.3805 17.8257 27.2577C17.5291 27.1348 17.2113 27.0716 16.8903 27.0716C16.5693 27.0716 16.2515 27.1348 15.955 27.2577C15.6584 27.3805 15.389 27.5605 15.162 27.7875C14.7036 28.2459 14.4461 28.8676 14.4461 29.5158C14.4461 30.1641 14.7036 30.7858 15.162 31.2441L23.2234 39.3056C23.4498 39.5337 23.719 39.7147 24.0156 39.8383C24.3123 39.9618 24.6304 40.0254 24.9518 40.0254C25.2731 40.0254 25.5912 39.9618 25.8879 39.8383C26.1845 39.7147 26.4537 39.5337 26.6801 39.3056L43.3729 22.6086C43.6029 22.3826 43.7859 22.1133 43.9113 21.8162C44.0367 21.5191 44.102 21.2001 44.1035 20.8777C44.105 20.5552 44.0427 20.2356 43.92 19.9374C43.7974 19.6391 43.6169 19.3681 43.3891 19.14C43.1612 18.9118 42.8904 18.731 42.5923 18.608C42.2942 18.4851 41.9747 18.4223 41.6522 18.4235C41.3297 18.4246 41.0107 18.4895 40.7134 18.6146C40.4162 18.7396 40.1467 18.9223 39.9204 19.152L24.9497 34.1226Z" fill="#389D36"/>
</svg>
