<svg width="65" height="65" viewBox="0 0 65 65" fill="none" xmlns="http://www.w3.org/2000/svg">
<path d="M0.864799 41.2334L6.92413 32.5018L0.862259 23.7663C-0.0719681 22.4181 -0.254517 20.7043 0.37426 19.1885C1.00508 17.6727 2.34453 16.5936 3.9568 16.3042L14.4162 14.4152L16.3065 3.95321C16.5961 2.3384 17.6725 1.00162 19.187 0.370677C20.7066 -0.255949 22.4141 -0.0733943 23.7724 0.858674L32.5008 6.9175L41.2349 0.851691C42.5933 -0.0763141 44.2944 -0.258868 45.8178 0.367631C47.3311 0.9987 48.4076 2.33536 48.6996 3.94636L50.5899 14.4121L61.0455 16.3004C62.6616 16.5924 64.0029 17.6714 64.6319 19.1948C65.2604 20.7056 65.0762 22.4194 64.1399 23.765L58.0806 32.4967L64.1425 41.2321C65.0767 42.5803 65.259 44.2942 64.6305 45.8099C63.9996 47.3257 62.6602 48.4048 61.0479 48.6943L50.5885 50.5833L48.6982 61.0452C48.4066 62.66 47.3297 63.9968 45.8165 64.6278C44.2994 65.2506 42.5868 65.076 41.2348 64.1398L32.5008 58.0797L23.7628 64.1454C22.9414 64.7065 21.9893 64.9985 21.0372 64.9985C20.4144 64.9985 19.7856 64.8754 19.1888 64.6295C17.6755 63.9987 16.599 62.6618 16.307 61.0508L14.4167 50.585L3.95984 48.696C2.34377 48.4065 1.0019 47.3275 0.373497 45.8079C-0.26506 44.2929 -0.0746307 42.5791 0.864799 41.2334ZM7.00919 43.0615L19.6547 45.3466L21.9398 57.9946L32.5008 50.6658L43.063 57.9908L45.3481 45.3428L57.9936 43.0577L50.6673 32.385L57.9886 21.937L45.3431 19.6519L43.0579 7.00382L32.5008 14.3327L21.9449 7.00128L19.6572 19.6531L7.01173 21.9382L14.3342 32.385L7.00919 43.0615ZM32.5008 18.1665C40.3526 18.1665 46.6049 24.5318 46.6049 32.2707C46.6049 40.1226 40.2384 46.3749 32.5008 46.3749C24.7632 46.3749 18.3966 40.0096 18.3966 32.2707C18.3966 24.641 24.6553 18.1665 32.5008 18.1665ZM32.5008 40.5098C36.9796 40.5098 40.6243 36.865 40.6243 32.3862C40.6243 27.9074 36.9821 24.3744 32.5008 24.3744C28.0194 24.3744 24.3772 28.0191 24.3772 32.385C24.3772 36.7508 28.0194 40.5098 32.5008 40.5098Z" fill="black"/>
</svg>
