<svg width="76" height="76" viewBox="0 0 76 76" fill="none" xmlns="http://www.w3.org/2000/svg">
<path d="M57.2292 26.0398C56.0092 26.5898 54.6192 26.9298 53.2892 27.1498C53.9192 27.0398 54.8192 25.9098 55.1892 25.4498C55.7492 24.7498 56.2092 23.9498 56.4792 23.0898C56.5092 23.0198 56.5292 22.9398 56.4692 22.8898C56.3892 22.8598 56.3292 22.8698 56.2592 22.9098C54.7892 23.6998 53.2592 24.2698 51.6392 24.6798C51.5092 24.7098 51.4092 24.6798 51.3192 24.5998C51.1892 24.4498 51.0592 24.2998 50.9192 24.1898C50.2392 23.6098 49.5092 23.1498 48.6792 22.8198C47.5992 22.3798 46.4092 22.1898 45.2392 22.2698C44.0992 22.3398 42.9892 22.6598 41.9792 23.1898C40.9692 23.7198 40.0692 24.4498 39.3492 25.3398C38.6092 26.2598 38.0592 27.3398 37.7792 28.4898C37.5092 29.5998 37.5292 30.6898 37.6992 31.8098C37.7192 31.9998 37.6992 32.0198 37.5392 31.9998C31.1892 31.0498 25.9192 28.7798 21.6492 23.9098C21.4592 23.6998 21.3592 23.6998 21.2092 23.9298C19.3392 26.7298 20.2492 31.2398 22.5792 33.4498C22.8892 33.7498 23.2092 34.0398 23.5592 34.3098C23.4292 34.3398 21.8792 34.1698 20.4892 33.4498C20.2992 33.3298 20.2092 33.3998 20.1892 33.6098C20.1692 33.9098 20.1892 34.1898 20.2392 34.5198C20.5992 37.3598 22.5692 39.9898 25.2592 41.0198C25.5792 41.1498 25.9292 41.2698 26.2792 41.3298C25.6692 41.4698 25.0292 41.5598 23.2692 41.4198C23.0492 41.3798 22.9692 41.4898 23.0492 41.6998C24.3692 45.3098 27.2292 46.3798 29.3692 46.9898C29.6592 47.0398 29.9392 47.0398 30.2292 47.1098C30.2092 47.1398 30.1992 47.1398 30.1792 47.1598C29.4692 48.2398 27.0092 49.0498 25.8692 49.4498C23.7892 50.1798 21.5192 50.5098 19.3192 50.2898C18.9692 50.2398 18.8892 50.2398 18.7992 50.2898C18.6992 50.3498 18.7892 50.4298 18.8992 50.5298C19.3492 50.8298 19.7992 51.0898 20.2592 51.3398C21.6592 52.0798 23.1192 52.6698 24.6392 53.0898C32.5092 55.2598 41.3792 53.6698 47.2892 47.7898C51.9292 43.1798 53.5592 36.8198 53.5592 30.4498C53.5592 30.1998 53.8492 30.0598 54.0292 29.9298C55.2392 29.0198 56.2792 27.9398 57.1792 26.7198C57.3792 26.4498 57.4592 26.2098 57.4592 26.1098V26.0798C57.4592 25.9798 57.3892 26.0098 57.2292 26.0798V26.0398Z" fill="black"/>
<path d="M38.1096 0.639648C17.4496 0.639648 0.639648 17.4496 0.639648 38.1096C0.639648 58.7696 17.4496 75.5797 38.1096 75.5797C58.7696 75.5797 75.5797 58.7696 75.5797 38.1096C75.5797 17.4496 58.7696 0.639648 38.1096 0.639648ZM38.1096 70.7696C20.0996 70.7696 5.44965 56.1196 5.44965 38.1096C5.44965 20.0996 20.0996 5.43965 38.1096 5.43965C56.1196 5.43965 70.7796 20.0896 70.7796 38.0996C70.7796 56.1096 56.1297 70.7597 38.1096 70.7597V70.7696Z" fill="black"/>
</svg>
